HIERARCHY
ROOT hip
{
  OFFSET 0 0 0
  CHANNELS 6 Xposition Yposition Zposition Zrotation Yrotation Xrotation
  JOINT abdomen
  {
    OFFSET 0 20.6881 -0.73152
    CHANNELS 3 Zrotation Xrotation Yrotation
    JOINT chest
    {
      OFFSET 0 11.7043 -0.48768
      CHANNELS 3 Zrotation Xrotation Yrotation
      JOINT neck
      {
        OFFSET 0 22.1894 -2.19456
        CHANNELS 3 Zrotation Xrotation Yrotation
        JOINT head
        {
          OFFSET -0.24384 7.07133 1.2192
          CHANNELS 3 Zrotation Xrotation Yrotation
          JOINT leftEye
          {
            OFFSET 4.14528 8.04674 8.04672
            CHANNELS 3 Zrotation Xrotation Yrotation
            End Site
            {
              OFFSET 1 0 0
            }
          }
          JOINT rightEye
          {
            OFFSET -3.6576 8.04674 8.04672
            CHANNELS 3 Zrotation Xrotation Yrotation
            End Site
            {
              OFFSET 1 0 0
            }
          }
        }
      }
      JOINT rCollar
      {
        OFFSET -2.68224 19.2634 -4.8768
        CHANNELS 3 Zrotation Xrotation Yrotation
        JOINT rShldr
        {
          OFFSET -8.77824 -1.95073 1.46304
          CHANNELS 3 Zrotation Xrotation Yrotation
          JOINT rForeArm
          {
            OFFSET -28.1742 -1.7115 0.48768
            CHANNELS 3 Zrotation Xrotation Yrotation
            JOINT rHand
            {
              OFFSET -22.5879 0.773209 7.07136
              CHANNELS 3 Zrotation Xrotation Yrotation
              JOINT rThumb1
              {
                OFFSET -1.2192 -0.487915 3.41376
                CHANNELS 3 Zrotation Xrotation Yrotation
                JOINT rThumb2
                {
                  OFFSET -3.37035 -0.52449 3.41376
                  CHANNELS 3 Zrotation Xrotation Yrotation
                  End Site
                  {
                    OFFSET -1.78271 -1.18214 1.43049
                  }
                }
              }
              JOINT rIndex1
              {
                OFFSET -7.75947 0.938293 5.60832
                CHANNELS 3 Zrotation Xrotation Yrotation
                JOINT rIndex2
                {
                  OFFSET -2.54057 -0.884171 1.56538
                  CHANNELS 3 Zrotation Xrotation Yrotation
                  End Site
                  {
                    OFFSET -1.62519 -0.234802 1.16502
                  }
                }
              }
              JOINT rMid1
              {
                OFFSET -8.24714 1.18213 3.41376
                CHANNELS 3 Zrotation Xrotation Yrotation
                JOINT rMid2
                {
                  OFFSET -3.10165 -0.590103 1.0647
                  CHANNELS 3 Zrotation Xrotation Yrotation
                  End Site
                  {
                    OFFSET -2.48547 -0.328903 0.83742
                  }
                }
              }
              JOINT rRing1
              {
                OFFSET -8.82822 0.546677 1.51678
                CHANNELS 3 Zrotation Xrotation Yrotation
                JOINT rRing2
                {
                  OFFSET -2.60934 -0.819778 -0.0198488
                  CHANNELS 3 Zrotation Xrotation Yrotation
                  End Site
                  {
                    OFFSET -2.33842 -0.294052 0.168128
                  }
                }
              }
              JOINT rPinky1
              {
                OFFSET -8.27202 -0.0477905 -0.4584
                CHANNELS 3 Zrotation Xrotation Yrotation
                JOINT rPinky2
                {
                  OFFSET -1.82734 -0.647385 -0.700984
                  CHANNELS 3 Zrotation Xrotation Yrotation
                  End Site
                  {
                    OFFSET -1.69225 -0.51767 -0.607171
                  }
                }
              }
            }
          }
        }
      }
      JOINT lCollar
      {
        OFFSET 2.68224 19.2634 -4.8768
        CHANNELS 3 Zrotation Xrotation Yrotation
        JOINT lShldr
        {
          OFFSET 8.77824 -1.95073 1.46304
          CHANNELS 3 Zrotation Xrotation Yrotation
          JOINT lForeArm
          {
            OFFSET 28.1742 -1.7115 0.48768
            CHANNELS 3 Zrotation Xrotation Yrotation
            JOINT lHand
            {
              OFFSET 22.5879 0.773209 7.07136
              CHANNELS 3 Zrotation Xrotation Yrotation
              JOINT lThumb1
              {
                OFFSET 1.2192 -0.487915 3.41376
                CHANNELS 3 Zrotation Xrotation Yrotation
                JOINT lThumb2
                {
                  OFFSET 3.37035 -0.52449 3.41376
                  CHANNELS 3 Zrotation Xrotation Yrotation
                  End Site
                  {
                    OFFSET 1.78271 -1.18214 1.43049
                  }
                }
              }
              JOINT lIndex1
              {
                OFFSET 7.75947 0.938293 5.60832
                CHANNELS 3 Zrotation Xrotation Yrotation
                JOINT lIndex2
                {
                  OFFSET 2.54057 -0.884171 1.56538
                  CHANNELS 3 Zrotation Xrotation Yrotation
                  End Site
                  {
                    OFFSET 1.62519 -0.234802 1.16502
                  }
                }
              }
              JOINT lMid1
              {
                OFFSET 8.24714 1.18213 3.41376
                CHANNELS 3 Zrotation Xrotation Yrotation
                JOINT lMid2
                {
                  OFFSET 3.10165 -0.590103 1.0647
                  CHANNELS 3 Zrotation Xrotation Yrotation
                  End Site
                  {
                    OFFSET 2.48547 -0.328903 0.83742
                  }
                }
              }
              JOINT lRing1
              {
                OFFSET 8.82822 0.546677 1.51678
                CHANNELS 3 Zrotation Xrotation Yrotation
                JOINT lRing2
                {
                  OFFSET 2.60934 -0.819778 -0.0198488
                  CHANNELS 3 Zrotation Xrotation Yrotation
                  End Site
                  {
                    OFFSET 2.33842 -0.294052 0.168128
                  }
                }
              }
              JOINT lPinky1
              {
                OFFSET 8.27202 -0.0477905 -0.4584
                CHANNELS 3 Zrotation Xrotation Yrotation
                JOINT lPinky2
                {
                  OFFSET 1.82734 -0.647385 -0.700984
                  CHANNELS 3 Zrotation Xrotation Yrotation
                  End Site
                  {
                    OFFSET 1.69225 -0.51767 -0.607171
                  }
                }
              }
            }
          }
        }
      }
    }
  }
  JOINT rButtock
  {
    OFFSET -8.77824 4.35084 1.2192
    CHANNELS 3 Zrotation Xrotation Yrotation
    JOINT rThigh
    {
      OFFSET 0 -1.70687 -2.19456
      CHANNELS 3 Zrotation Xrotation Yrotation
      JOINT rShin
      {
        OFFSET 0 -36.8199 0.73152
        CHANNELS 3 Zrotation Xrotation Yrotation
        JOINT rFoot
        {
          OFFSET 0.73152 -45.1104 -5.12064
          CHANNELS 3 Zrotation Xrotation Yrotation
          End Site
          {
            OFFSET -1.1221 -3.69964 12.103
          }
        }
      }
    }
  }
  JOINT lButtock
  {
    OFFSET 8.77824 4.35084 1.2192
    CHANNELS 3 Zrotation Xrotation Yrotation
    JOINT lThigh
    {
      OFFSET 0 -1.70687 -2.19456
      CHANNELS 3 Zrotation Xrotation Yrotation
      JOINT lShin
      {
        OFFSET 0 -36.8199 0.73152
        CHANNELS 3 Zrotation Xrotation Yrotation
        JOINT lFoot
        {
          OFFSET -0.73152 -45.1104 -5.12064
          CHANNELS 3 Zrotation Xrotation Yrotation
          End Site
          {
            OFFSET 1.1221 -3.69964 12.103
          }
        }
      }
    }
  }
}
MOTION
Frames:	4
Frame Time:	0.03333
0.0 0.0 0.0 0.0 0.0 0.0 0.0 0.0 0.0 0.0 0.0 0.0 0.0 0.0 0.0 0.0 0.0 0.0 0.0 0.0 0.0 0.0 0.0 0.0 0.0 0.0 0.0 0.0 0.0 0.0 0.0 0.0 0.0 0.0 0.0 0.0 0.0 0.0 0.0 0.0 0.0 0.0 0.0 0.0 0.0 0.0 0.0 0.0 0.0 0.0 0.0 0.0 0.0 0.0 0.0 0.0 0.0 0.0 0.0 0.0 0.0 0.0 0.0 0.0 0.0 0.0 0.0 0.0 0.0 0.0 0.0 0.0 0.0 0.0 0.0 0.0 0.0 0.0 0.0 0.0 0.0 0.0 0.0 0.0 0.0 0.0 0.0 0.0 0.0 0.0 0.0 0.0 0.0 0.0 0.0 0.0 0.0 0.0 0.0 0.0 0.0 0.0 0.0 0.0 0.0 0.0 0.0 0.0 0.0 0.0 0.0 0.0 0.0 0.0 0.0 0.0 0.0 0.0 0.0 0.0 0.0 0.0 0.0 0.0 0.0 0.0 0.0 0.0 0.0 0.0 0.0 0.0
4.0422 -1.4073 0.7849 -161.416726 4.704917 -57.656275 95.609507 -26.605379 -82.290815 166.903203 27.576416 106.182132 112.347417 -54.152773 21.328699 -163.274125 13.162577 79.16121 41.937547 12.838132 32.720626 -24.527868 -2.252655 10.336156 -148.541162 34.232045 88.151916 -7.412842 13.209663 8.696861 68.706531 -10.601192 -173.204523 -1.278565 47.949862 133.973246 169.160965 -1.587345 -60.427386 -27.635049 -29.985264 150.602429 16.196364 -36.833117 0.213111 5.13318 11.751259 -148.953616 -136.307845 -31.858693 98.882322 -142.205117 53.624485 15.978432 18.692221 -7.584923 151.717449 -174.129401 -40.317133 1.08283 171.644688 -7.49945 158.132927 -168.951031 19.790737 57.633358 55.40372 -17.219628 149.139446 -151.221957 3.424107 12.795486 8.599192 -19.166478 116.10281 -131.979032 -17.041208 91.229637 -5.626804 9.625995 147.337319 -12.907237 -60.907791 151.948765 -140.172947 55.450751 91.148207 -159.231651 68.193123 3.176249 -160.533303 45.272448 -2.528488 -153.045476 -54.395414 -51.910991 66.132012 -41.340946 77.786872 -139.213803 -10.583518 23.534756 -108.820744 -60.928813 -19.729601 -64.614077 13.150581 144.802865 109.457517 -5.060068 119.221704 160.341396 -62.243393 -180.0 106.516116 -38.326559 41.251861 -47.613339 46.23423 178.492938 -91.500629 2.663833 -89.930241 -66.617753 -17.071928 -36.258404 -179.159412 19.929266 -96.682798 -171.33723 -20.863226 -162.635512
6.294 -1.3077999999999999 0.7998999999999999 -158.032432 0.353702 -59.942252 96.995723 -16.341305 -0.0 151.852905 -5.705775 -172.369064 121.476244 -47.563258 82.385401 173.594292 12.539029 135.69718 43.122895 13.430172 33.184193 -21.324264 -1.721262 9.123999 -119.000134 33.239736 62.654905 8.461966 1.091136 23.68097 128.809801 78.509024 88.575278 175.255543 43.170792 -65.822416 -90.904024 81.258732 -140.761186 154.798414 -85.656688 -105.516801 2.310427 -11.165856 -0.103583 172.849431 8.396699 -100.237632 -161.061714 -38.808669 95.289513 109.892944 -61.649957 -168.968957 -89.594179 -63.02567 89.551249 18.925916 -40.649396 171.45967 -135.894997 28.483731 119.256846 -7.465864 -45.934801 159.080305 -105.402316 31.035371 33.016065 -130.739188 -85.253558 96.689843 141.7242 -66.342201 -90.758741 -134.331623 -10.281348 94.811154 -92.400581 -6.957761 130.472893 171.857651 -39.485567 22.238941 50.217299 -11.294262 159.789468 -173.322185 -31.53727 108.325439 -178.725391 -25.272146 13.454564 -21.047459 -43.419095 69.873934 142.211973 17.151421 150.977876 -48.599345 19.898412 146.514538 20.847697 31.972112 -163.307545 -158.692512 -23.772484 -76.150826 2.081303 -44.794699 -81.338844 -172.56136 -43.685695 -169.295701 -94.867221 -4.327148 134.795219 -21.714349 14.028695 -123.376977 -38.110256 56.671314 -180.0 39.347844 -26.706789 -49.277993 -155.180969 3.405977 84.049293 167.634763 -48.362092 98.689321
8.6074 -1.2491 0.7396 -155.564406 -2.251524 -62.17914 101.060783 -13.897573 -133.293795 -164.506813 27.676079 53.901802 93.964701 -44.317446 -81.138558 -159.876793 -22.260452 -2.471288 44.020974 13.902463 33.567173 -18.89568 -1.388852 8.331816 73.320949 -57.191008 109.607391 90.620002 82.737575 -89.114869 3.492957 26.625577 118.914279 14.385106 -7.436326 147.603725 108.808614 -66.384143 -108.377322 -60.200151 -4.052893 -165.074555 -151.492196 -12.252671 119.314057 38.066758 3.64729 133.381414 -130.675611 -18.647752 108.595456 30.088377 -68.617062 119.284322 10.249896 -13.130437 130.374119 27.842019 -50.987315 -166.680599 -27.360928 -41.960747 62.171133 54.147077 63.953442 162.500994 39.77316 -33.398209 152.52863 18.961689 12.13256 173.780091 -177.925639 -10.983444 -52.18701 -142.243843 9.847104 83.415219 -173.537127 12.780962 118.777662 116.694556 22.855942 40.130305 -93.534856 24.734782 71.211318 53.717051 80.641512 171.121481 -25.407047 34.417215 -143.47103 178.466674 25.676094 -78.505066 94.541401 -26.136632 125.566022 1.58062 1.708001 140.668466 10.373258 36.541669 -153.046029 -40.072331 23.940801 -119.805937 105.554259 5.003946 116.231824 165.957802 -55.179564 -11.762356 -105.475717 6.770143 -101.419292 134.523651 -47.605206 -136.853249 -37.490739 59.612675 180.0 41.12616 -21.35659 67.36031 174.589635 12.658612 64.400078 -132.433825 -40.810552 -59.321681
